<svg width="512" height="97" viewBox="0 0 512 97" fill="none" xmlns="http://www.w3.org/2000/svg">
<path d="M41.8946 80.8414H0V17.3647H9.79354V71.864H41.8946V80.8414Z" fill="white"/>
<path d="M67.5587 82.1109C63.3269 82.1109 59.3672 81.2041 55.6795 79.3905C51.9918 77.5164 49.0296 74.796 46.7928 71.2292C44.556 67.602 43.4376 63.3097 43.4376 58.3525C43.4376 53.3953 44.556 49.1333 46.7928 45.5665C49.0296 41.9393 51.9918 39.2188 55.6795 37.4052C59.3672 35.5312 63.3269 34.5941 67.5587 34.5941C71.73 34.5941 75.6595 35.5312 79.3472 37.4052C83.0349 39.2188 85.9971 41.9393 88.2339 45.5665C90.4707 49.1333 91.5891 53.3953 91.5891 58.3525C91.5891 63.3097 90.4707 67.602 88.2339 71.2292C85.9971 74.796 83.0349 77.5164 79.3472 79.3905C75.6595 81.2041 71.73 82.1109 67.5587 82.1109ZM67.5587 73.4962C70.1582 73.4962 72.5764 72.8917 74.8132 71.6826C77.0499 70.4131 78.8031 68.6297 80.0727 66.3324C81.4026 64.0352 82.0676 61.3752 82.0676 58.3525C82.0676 55.3298 81.4026 52.6698 80.0727 50.3726C78.8031 48.0753 77.0499 46.3222 74.8132 45.1131C72.5764 43.8436 70.1582 43.2088 67.5587 43.2088C64.8987 43.2088 62.4503 43.8436 60.2135 45.1131C58.0372 46.3222 56.284 48.0753 54.954 50.3726C53.6241 52.6698 52.9591 55.3298 52.9591 58.3525C52.9591 61.3752 53.6241 64.0352 54.954 66.3324C56.284 68.6297 58.0372 70.4131 60.2135 71.6826C62.4503 72.8917 64.8987 73.4962 67.5587 73.4962Z" fill="white"/>
<path d="M120.65 82.1109C116.418 82.1109 112.458 81.2041 108.77 79.3905C105.083 77.5164 102.12 74.796 99.8836 71.2292C97.6468 67.602 96.5284 63.3097 96.5284 58.3525C96.5284 53.3953 97.6468 49.1333 99.8836 45.5665C102.12 41.9393 105.083 39.2188 108.77 37.4052C112.458 35.5312 116.418 34.5941 120.65 34.5941C124.821 34.5941 128.75 35.5312 132.438 37.4052C136.126 39.2188 139.088 41.9393 141.325 45.5665C143.562 49.1333 144.68 53.3953 144.68 58.3525C144.68 63.3097 143.562 67.602 141.325 71.2292C139.088 74.796 136.126 77.5164 132.438 79.3905C128.75 81.2041 124.821 82.1109 120.65 82.1109ZM120.65 73.4962C123.249 73.4962 125.667 72.8917 127.904 71.6826C130.141 70.4131 131.894 68.6297 133.163 66.3324C134.493 64.0352 135.158 61.3752 135.158 58.3525C135.158 55.3298 134.493 52.6698 133.163 50.3726C131.894 48.0753 130.141 46.3222 127.904 45.1131C125.667 43.8436 123.249 43.2088 120.65 43.2088C117.99 43.2088 115.541 43.8436 113.304 45.1131C111.128 46.3222 109.375 48.0753 108.045 50.3726C106.715 52.6698 106.05 55.3298 106.05 58.3525C106.05 61.3752 106.715 64.0352 108.045 66.3324C109.375 68.6297 111.128 70.4131 113.304 71.6826C115.541 72.8917 117.99 73.4962 120.65 73.4962Z" fill="white"/>
<path d="M161.77 80.8414H152.34V17.3647H161.77V51.1887L177.368 35.8637H189.065L172.834 51.7328L191.514 80.8414H180.813L166.214 58.1712L161.77 62.5238V80.8414Z" fill="white"/>
<path d="M212.31 82.1109C207.292 82.1109 203.121 80.8716 199.796 78.393C196.531 75.9144 194.083 72.7103 192.45 68.7808L200.068 64.0654C201.095 67.209 202.667 69.6876 204.783 71.5012C206.899 73.3149 209.468 74.2217 212.491 74.2217C214.909 74.2217 216.904 73.6474 218.476 72.4987C220.108 71.2897 220.924 69.7179 220.924 67.7833C220.924 65.9697 220.078 64.549 218.385 63.5213C216.753 62.4332 214.093 61.5566 210.405 60.8916C205.75 59.9848 202.002 58.413 199.161 56.1762C196.38 53.9394 194.989 50.9167 194.989 47.1081C194.989 43.239 196.531 40.1861 199.614 37.9493C202.758 35.7125 206.597 34.5941 211.131 34.5941C215.786 34.5941 219.534 35.5312 222.375 37.4052C225.216 39.2188 227.483 41.9997 229.176 45.7479L222.284 49.8285C221.257 47.229 219.776 45.234 217.841 43.8436C215.967 42.3927 213.791 41.6672 211.312 41.6672C209.015 41.6672 207.11 42.1206 205.599 43.0274C204.088 43.8738 203.332 45.1131 203.332 46.7454C203.332 48.4985 204.269 49.9494 206.143 51.098C208.078 52.2467 210.919 53.1837 214.667 53.9092C219.745 54.9369 223.493 56.5389 225.912 58.7152C228.39 60.8311 229.63 63.7631 229.63 67.5113C229.63 70.1713 228.934 72.6196 227.544 74.8564C226.214 77.0932 224.219 78.8766 221.559 80.2066C218.959 81.4761 215.876 82.1109 212.31 82.1109Z" fill="white"/>
<path d="M237.913 80.8414V17.3647H264.029C268.443 17.3647 272.251 18.1204 275.455 19.6318C278.72 21.0827 281.198 23.1683 282.891 25.8888C284.644 28.6092 285.521 31.7226 285.521 35.2289C285.521 39.8838 284.221 43.7529 281.622 46.836C279.022 49.8587 275.365 52.0351 270.649 53.3651L286.246 80.8414H275.183L260.04 54.2719H247.707V80.8414H237.913ZM263.576 45.6572C267.566 45.6572 270.589 44.8411 272.644 43.2088C274.7 41.5161 275.727 39.0375 275.727 35.773C275.727 32.5689 274.7 30.1508 272.644 28.5185C270.589 26.8258 267.566 25.9794 263.576 25.9794H247.707V45.6572H263.576Z" fill="white"/>
<path d="M305.279 82.1109C300.805 82.1109 297.178 80.8414 294.397 78.3023C291.616 75.7028 290.226 72.3174 290.226 68.1461C290.226 63.9143 291.677 60.5893 294.578 58.1712C297.541 55.753 301.319 54.1812 305.913 53.4557L320.241 51.1887V49.3751C320.241 46.7756 319.425 44.8108 317.793 43.4808C316.221 42.1509 313.924 41.4859 310.901 41.4859C307.939 41.4859 305.611 42.0904 303.918 43.2995C302.286 44.4481 301.47 45.899 301.47 47.6522C301.47 48.0753 301.531 48.4683 301.651 48.831L293.399 51.6421C292.916 50.4935 292.674 49.2542 292.674 47.9242C292.674 45.5665 293.399 43.3902 294.85 41.3952C296.362 39.3398 298.508 37.7075 301.289 36.4984C304.07 35.2289 307.274 34.5941 310.901 34.5941C316.946 34.5941 321.571 35.9241 324.775 38.5841C328.04 41.2441 329.672 45.1131 329.672 50.1912V69.6876C329.672 72.2267 329.883 74.3124 330.307 75.9446C330.73 77.5164 331.485 79.1487 332.574 80.8414H323.052C321.42 78.7255 320.604 76.0655 320.604 72.8615C319.213 75.7633 317.128 78.0303 314.347 79.6625C311.626 81.2948 308.604 82.1109 305.279 82.1109ZM307.274 74.3124C311.143 74.3124 314.256 72.9219 316.614 70.141C319.032 67.2997 320.241 63.6725 320.241 59.2593V57.9898L307.999 60.0755C305.218 60.5591 303.072 61.4357 301.561 62.7052C300.11 63.9747 299.384 65.6372 299.384 67.6926C299.384 69.7481 300.08 71.3803 301.47 72.5894C302.921 73.738 304.856 74.3124 307.274 74.3124Z" fill="white"/>
<path d="M339.553 80.8414V35.8637H348.984V43.4808C350.193 40.7604 351.886 38.6143 354.062 37.0425C356.299 35.4102 358.808 34.5941 361.589 34.5941C362.919 34.5941 364.218 34.7755 365.488 35.1382L363.946 43.8436C362.798 43.4204 361.589 43.2088 360.319 43.2088C356.994 43.2088 354.274 44.6295 352.158 47.4708C350.042 50.2517 348.984 53.6976 348.984 57.8084V80.8414H339.553Z" fill="white"/>
<path d="M388.952 82.1109C384.841 82.1109 381.032 81.1134 377.526 79.1184C374.08 77.1235 371.329 74.3124 369.274 70.6851C367.219 67.0579 366.191 62.947 366.191 58.3525C366.191 53.758 367.219 49.6774 369.274 46.1106C371.329 42.4834 374.11 39.6723 377.617 37.6773C381.183 35.6218 385.113 34.5941 389.405 34.5941C393.697 34.5941 397.476 35.5614 400.74 37.4959C404.065 39.37 406.634 42.03 408.448 45.4758C410.262 48.8612 411.168 52.7303 411.168 57.083V60.3475H375.259C375.561 64.3979 376.982 67.6926 379.521 70.2317C382.06 72.7708 385.264 74.0403 389.133 74.0403C392.458 74.0403 395.209 73.2846 397.385 71.7733C399.561 70.2015 401.405 67.9345 402.917 64.9722L409.808 68.9622C407.632 73.3753 404.851 76.6701 401.466 78.8464C398.08 81.0227 393.909 82.1109 388.952 82.1109ZM402.191 53.0023C401.828 49.5565 400.438 46.8663 398.02 44.9317C395.602 42.9368 392.639 41.9393 389.133 41.9393C385.748 41.9393 382.816 42.9972 380.337 45.1131C377.858 47.1685 376.226 49.7983 375.44 53.0023H402.191Z" fill="white"/>
<path d="M447.792 31.2197C460.359 18.7236 480.734 18.7236 493.301 31.2197L504.157 42.014L493.301 52.8082C480.734 65.3043 460.359 65.3043 447.792 52.8082L436.936 42.014L447.792 31.2197Z" fill="black"/>
<path fill-rule="evenodd" clip-rule="evenodd" d="M429.094 42.031L453.741 17.3662H487.352L512 42.031L470.547 83.4669L429.094 42.031ZM489.593 33.0501C479.12 22.5315 461.974 22.5315 451.501 33.0501L442.538 42.0131L451.501 50.9759C461.974 61.4945 479.12 61.4945 489.593 50.9759L498.556 42.0131L489.593 33.0501Z" fill="#0CE466"/>
<path d="M470.547 49.8558C466.217 49.8558 462.704 46.3464 462.704 42.0133C462.704 37.6803 466.217 34.1709 470.547 34.1709C474.876 34.1709 478.389 37.6803 478.389 42.0133C478.389 46.3464 474.876 49.8558 470.547 49.8558Z" fill="black"/>
<path fill-rule="evenodd" clip-rule="evenodd" d="M457.663 42.0141C457.663 49.1327 463.434 54.8982 470.547 54.8982C477.659 54.8982 483.431 49.1327 483.431 42.0142C483.431 34.8956 477.659 29.1301 470.547 29.1301C463.434 29.1301 457.663 34.8956 457.663 42.0141ZM464.945 42.0142C464.945 45.1093 467.454 47.616 470.546 47.616C473.639 47.616 476.148 45.1093 476.148 42.0142C476.148 38.9192 473.639 36.4125 470.546 36.4125C467.454 36.4125 464.945 38.9192 464.945 42.0142Z" fill="white"/>
</svg>
