<svg width="1659" height="512" viewBox="0 0 1659 512" fill="none" xmlns="http://www.w3.org/2000/svg">
<path d="M665.6 384L717.634 258.901L665.6 130.176H730.688L770.574 236.963H776.014L816.625 130.176H881.713L829.135 258.901L881.713 384H816.625L776.014 280.113H770.756L730.688 384H665.6Z" fill="white"/>
<path d="M925.67 384V341.394C929.296 338.735 934.131 335.109 940.174 330.515C946.218 325.922 952.986 320.604 960.48 314.561C967.974 308.397 975.649 301.809 983.506 294.799C991.483 287.788 999.158 280.476 1006.53 272.861C1014.02 265.126 1020.73 257.511 1026.66 250.017C1032.58 242.402 1037.29 234.969 1040.8 227.717C1044.3 220.465 1046.06 213.696 1046.06 207.411C1046.06 201.367 1045.33 196.17 1043.88 191.819C1042.43 187.467 1040.31 183.962 1037.53 181.303C1034.87 178.523 1031.67 176.468 1027.92 175.139C1024.3 173.809 1020.19 173.144 1015.6 173.144C1008.34 173.144 1001.94 175.32 996.378 179.671C990.939 184.023 986.406 189.401 982.78 195.807C979.275 202.092 976.797 208.317 975.347 214.482L923.857 192.363C927.12 179.067 933.224 167.584 942.168 157.915C951.113 148.245 961.93 140.872 974.622 135.796C987.434 130.599 1001.15 128 1015.78 128C1028.83 128 1040.92 129.39 1052.04 132.17C1063.16 134.829 1072.83 139.241 1081.05 145.405C1089.39 151.448 1095.85 159.486 1100.45 169.518C1105.16 179.55 1107.52 192 1107.52 206.867C1107.52 216.053 1105.34 225.541 1100.99 235.331C1096.64 245.001 1090.9 254.61 1083.77 264.159C1076.76 273.586 1069.14 282.591 1060.92 291.173C1052.82 299.634 1044.85 307.369 1036.99 314.38C1029.13 321.269 1022.18 327.01 1016.14 331.603C1010.22 336.075 1006.05 339.097 1003.63 340.668H1104.43V384H925.67Z" fill="white"/>
<path d="M1239.41 384V302.232L1164.53 130.176H1225.99L1269.14 247.479L1312.29 130.176H1373.75L1299.24 302.232V384H1239.41Z" fill="white"/>
<path d="M1421.51 384V341.394C1425.14 338.735 1429.98 335.109 1436.02 330.515C1442.06 325.922 1448.83 320.604 1456.33 314.561C1463.82 308.397 1471.49 301.809 1479.35 294.799C1487.33 287.788 1495 280.476 1502.38 272.861C1509.87 265.126 1516.58 257.511 1522.5 250.017C1528.42 242.402 1533.14 234.969 1536.64 227.717C1540.15 220.465 1541.9 213.696 1541.9 207.411C1541.9 201.367 1541.17 196.17 1539.72 191.819C1538.27 187.467 1536.16 183.962 1533.38 181.303C1530.72 178.523 1527.52 176.468 1523.77 175.139C1520.14 173.809 1516.03 173.144 1511.44 173.144C1504.19 173.144 1497.78 175.32 1492.22 179.671C1486.78 184.023 1482.25 189.401 1478.63 195.807C1475.12 202.092 1472.64 208.317 1471.19 214.482L1419.7 192.363C1422.97 179.067 1429.07 167.584 1438.01 157.915C1446.96 148.245 1457.78 140.872 1470.47 135.796C1483.28 130.599 1497 128 1511.62 128C1524.68 128 1536.76 129.39 1547.88 132.17C1559 134.829 1568.67 139.241 1576.89 145.405C1585.23 151.448 1591.7 159.486 1596.29 169.518C1601.01 179.55 1603.36 192 1603.36 206.867C1603.36 216.053 1601.19 225.541 1596.84 235.331C1592.48 245.001 1586.74 254.61 1579.61 264.159C1572.6 273.586 1564.99 282.591 1556.77 291.173C1548.67 299.634 1540.69 307.369 1532.84 314.38C1524.98 321.269 1518.03 327.01 1511.99 331.603C1506.06 336.075 1501.89 339.097 1499.48 340.668H1600.28V384H1421.51Z" fill="white"/>
<g clip-path="url(#clip0_1091_63)">
<path d="M512 256C512 114.615 397.385 0 256 0C114.615 0 0 114.615 0 256C0 397.385 114.615 512 256 512C397.385 512 512 397.385 512 256Z" fill="white"/>
<path d="M418.612 131.483C387.231 100.818 344.302 81.92 296.96 81.92C200.818 81.92 122.88 159.858 122.88 256C122.88 352.142 200.818 430.08 296.96 430.08C344.302 430.08 387.231 411.182 418.612 380.517C381.179 429.329 322.264 460.8 256 460.8C142.892 460.8 51.2 369.108 51.2 256C51.2 142.892 142.892 51.2 256 51.2C322.264 51.2 381.179 82.6712 418.612 131.483Z" fill="url(#paint0_linear_1091_63)"/>
<path d="M166.87 355.615C191.976 380.146 226.318 395.264 264.192 395.264C341.106 395.264 403.456 332.914 403.456 256C403.456 179.086 341.106 116.736 264.192 116.736C226.318 116.736 191.976 131.854 166.87 156.385C196.817 117.337 243.948 92.16 296.96 92.16C387.446 92.16 460.8 165.514 460.8 256C460.8 346.486 387.446 419.84 296.96 419.84C243.948 419.84 196.817 394.662 166.87 355.615Z" fill="url(#paint1_linear_1091_63)"/>
<path fill-rule="evenodd" clip-rule="evenodd" d="M378.88 256C378.88 323.864 323.864 378.88 256 378.88C188.136 378.88 133.12 323.864 133.12 256C133.12 188.136 188.136 133.12 256 133.12C323.864 133.12 378.88 188.136 378.88 256ZM337.92 256C337.92 301.243 301.243 337.92 256 337.92C210.757 337.92 174.08 301.243 174.08 256C174.08 210.757 210.757 174.08 256 174.08C301.243 174.08 337.92 210.757 337.92 256Z" fill="url(#paint2_linear_1091_63)"/>
</g>
<defs>
<linearGradient id="paint0_linear_1091_63" x1="51.2" y1="248.938" x2="460.8" y2="248.938" gradientUnits="userSpaceOnUse">
<stop stop-color="#00E0FF"/>
<stop offset="1" stop-color="#562EC8"/>
</linearGradient>
<linearGradient id="paint1_linear_1091_63" x1="51.2" y1="248.938" x2="460.8" y2="248.938" gradientUnits="userSpaceOnUse">
<stop stop-color="#00E0FF"/>
<stop offset="1" stop-color="#562EC8"/>
</linearGradient>
<linearGradient id="paint2_linear_1091_63" x1="51.2" y1="248.938" x2="460.8" y2="248.938" gradientUnits="userSpaceOnUse">
<stop stop-color="#00E0FF"/>
<stop offset="1" stop-color="#562EC8"/>
</linearGradient>
<clipPath id="clip0_1091_63">
<rect width="512" height="512" fill="white"/>
</clipPath>
</defs>
</svg>
